<?xml version="1.0" encoding="utf-8"?>
<!-- Generator: Adobe Illustrator 21.0.0, SVG Export Plug-In . SVG Version: 6.00 Build 0)  -->
<svg version="1.1" id="Layer_1" xmlns="http://www.w3.org/2000/svg" xmlns:xlink="http://www.w3.org/1999/xlink" x="0px" y="0px"
	 viewBox="0 0 226 82.4" style="enable-background:new 0 0 226 82.4;" xml:space="preserve">
<style type="text/css">
	.st0{fill:#00538A;}
	.st1{fill:#7C9BB0;}
</style>
<g>
	<path class="st0" d="M34.6,30.2V36c-3.9,2.1-8.4,3.2-13.5,3.2c-4.1,0-7.7-0.8-10.5-2.5c-2.9-1.7-5.2-4-6.8-6.9
		c-1.7-2.9-2.5-6.1-2.5-9.5c0-5.4,1.9-9.9,5.8-13.6c3.8-3.7,8.6-5.5,14.2-5.5c3.9,0,8.2,1,13,3.1V10c-4.3-2.5-8.6-3.7-12.7-3.7
		c-4.2,0-7.8,1.3-10.6,4c-2.8,2.7-4.2,6-4.2,10.1c0,4.1,1.4,7.4,4.1,10c2.8,2.6,6.3,3.9,10.6,3.9C25.9,34.3,30.3,32.9,34.6,30.2z"/>
	<path class="st0" d="M39.5,1.7h4.8v15.9c2-2.5,4.5-3.7,7.5-3.7c1.6,0,3.1,0.4,4.4,1.2c1.3,0.8,2.3,1.9,2.9,3.4
		c0.6,1.4,0.9,3.6,0.9,6.4v13.9h-4.8V23.7c0-1.8-0.4-3.2-1.3-4.3c-0.9-1.1-2-1.6-3.5-1.6c-1.1,0-2.1,0.3-3,0.8
		c-0.9,0.5-2,1.5-3.1,2.7v17.5h-4.8V1.7z"/>
	<path class="st0" d="M86.8,27H69.6c0.1,2.3,0.9,4.2,2.3,5.6c1.4,1.4,3.3,2.1,5.6,2.1c3.2,0,6.1-1,8.8-3v4.7c-1.5,1-3,1.7-4.4,2.1
		c-1.5,0.4-3.2,0.6-5.1,0.6c-2.7,0-4.9-0.6-6.5-1.7c-1.7-1.1-3-2.6-4-4.5c-1-1.9-1.5-4.1-1.5-6.5c0-3.7,1.1-6.7,3.2-9.1
		c2.1-2.3,4.8-3.5,8.2-3.5c3.2,0,5.8,1.1,7.7,3.4c1.9,2.3,2.9,5.3,2.9,9.1V27z M69.7,24.1H82c-0.1-1.9-0.7-3.4-1.7-4.5
		c-1-1-2.4-1.6-4.1-1.6c-1.7,0-3.2,0.5-4.3,1.6C70.8,20.7,70.1,22.2,69.7,24.1z"/>
	<path class="st0" d="M111.2,21v17.7h-4.9V25.2c0-2.7-0.4-4.6-1.1-5.7c-0.7-1.1-2-1.6-3.8-1.6c-1,0-1.9,0.2-2.8,0.7
		c-0.8,0.5-1.8,1.3-2.9,2.4v17.7H91V14.3h4.8v3.2c2.5-2.5,4.9-3.7,7.2-3.7c3.1,0,5.5,1.5,7.2,4.4c2.6-3,5.3-4.5,8.1-4.5
		c2.4,0,4.3,0.9,5.9,2.6c1.5,1.7,2.3,4.4,2.3,7.9v14.4h-4.8V24.3c0-2-0.4-3.6-1.2-4.7c-0.8-1.1-2-1.6-3.6-1.6
		C114.8,18,112.9,19,111.2,21z"/>
	<path class="st0" d="M137.5,14.3v5.6l0.3-0.4c2.3-3.8,4.7-5.7,7-5.7c1.8,0,3.7,0.9,5.7,2.8l-2.5,4.2c-1.7-1.6-3.2-2.4-4.7-2.4
		c-1.6,0-2.9,0.7-4,2.2c-1.1,1.5-1.7,3.2-1.7,5.3v12.8h-4.9V14.3H137.5z"/>
	<path class="st0" d="M155.5,4.1c0.8,0,1.5,0.3,2,0.8c0.6,0.5,0.8,1.2,0.8,2c0,0.8-0.3,1.5-0.8,2c-0.6,0.6-1.2,0.8-2,0.8
		c-0.7,0-1.4-0.3-2-0.9c-0.6-0.6-0.8-1.2-0.8-2c0-0.7,0.3-1.4,0.8-2C154.1,4.4,154.7,4.1,155.5,4.1z M153.1,14.3h4.8v24.4h-4.8V14.3
		z"/>
	<path class="st0" d="M168.9,14.3v3.1c2.2-2.4,4.6-3.6,7.4-3.6c1.5,0,2.9,0.4,4.2,1.2c1.3,0.8,2.3,1.9,3,3.2c0.7,1.4,1,3.5,1,6.5v14
		h-4.8V24.8c0-2.5-0.4-4.3-1.1-5.3c-0.8-1.1-2-1.6-3.8-1.6c-2.3,0-4.2,1.1-5.8,3.4v17.4H164V14.3H168.9z"/>
	<path class="st0" d="M189.2,22.8c0-2.6,1-4.7,2.9-6.2c1.9-1.5,4.5-2.3,7.8-2.3h10.1v3.8H205c1,1,1.6,1.9,2,2.7
		c0.4,0.8,0.6,1.7,0.6,2.7c0,1.3-0.4,2.5-1.1,3.8c-0.7,1.2-1.7,2.2-2.8,2.8c-1.1,0.7-3,1.2-5.6,1.6c-1.8,0.3-2.7,0.9-2.7,1.9
		c0,0.6,0.3,1,1,1.4c0.7,0.4,1.9,0.7,3.7,1.1c3,0.7,4.9,1.2,5.8,1.5c0.9,0.4,1.6,0.9,2.3,1.6c1.2,1.2,1.8,2.6,1.8,4.4
		c0,2.3-1,4.2-3.1,5.5c-2.1,1.4-4.8,2.1-8.3,2.1c-3.5,0-6.3-0.7-8.3-2.1c-2.1-1.4-3.1-3.3-3.1-5.6c0-3.3,2-5.4,6.1-6.4
		c-1.6-1-2.4-2.1-2.4-3.1c0-0.8,0.3-1.5,1-2.1c0.7-0.6,1.6-1.1,2.8-1.4C191,28.9,189.2,26.3,189.2,22.8z M197.1,39.9
		c-1.6,0-3,0.3-4,1c-1,0.7-1.6,1.6-1.6,2.7c0,2.5,2.3,3.8,6.8,3.8c2.1,0,3.8-0.3,5-0.9c1.2-0.6,1.8-1.5,1.8-2.7
		c0-1.1-0.7-2.1-2.2-2.8C201.4,40.3,199.5,39.9,197.1,39.9z M198.3,18.5c-1.3,0-2.4,0.4-3.3,1.3c-0.9,0.9-1.4,1.9-1.4,3.2
		c0,1.3,0.5,2.3,1.4,3.1c0.9,0.8,2,1.2,3.4,1.2c1.4,0,2.5-0.4,3.4-1.3c0.9-0.8,1.4-1.9,1.4-3.1c0-1.3-0.5-2.3-1.4-3.2
		C200.8,19,199.7,18.5,198.3,18.5z"/>
</g>
<rect x="220.1" y="1.4" class="st1" width="4.9" height="74"/>
<g>
	<path class="st0" d="M5.8,75.5H4.6V58.2h1.2V75.5z"/>
	<path class="st0" d="M10.5,66.1L10.5,66.1c1.1-1.6,2.2-2.2,3.8-2.2c2.4,0,4.2,1.6,4.2,4.7v7h-1.2V69c0-2.6-1.1-3.9-3.1-3.9
		c-1.6,0-2.7,0.8-3.7,2.4v8H9.3V64.1h1.2V66.1z"/>
	<path class="st0" d="M23,66.1L23,66.1c1.1-1.6,2.2-2.2,3.8-2.2c2.4,0,4.2,1.6,4.2,4.7v7h-1.2V69c0-2.6-1.1-3.9-3.1-3.9
		c-1.6,0-2.7,0.8-3.7,2.4v8h-1.2V64.1H23V66.1z"/>
	<path class="st0" d="M39.5,75.7c-3.3,0-5.8-2.5-5.8-5.9c0-3.4,2.5-5.9,5.8-5.9c3.3,0,5.8,2.5,5.8,5.9
		C45.3,73.2,42.8,75.7,39.5,75.7z M39.5,65.1c-2.6,0-4.5,2-4.5,4.7c0,2.7,1.9,4.7,4.5,4.7c2.6,0,4.5-2,4.5-4.7
		C44,67.1,42.1,65.1,39.5,65.1z"/>
	<path class="st0" d="M51.8,75.7h-0.8l-5.2-11.6h1.2l4.3,9.6l4.1-9.6h1.2L51.8,75.7z"/>
	<path class="st0" d="M67.4,74.6l-0.2,0.2c-1.1,0.9-1.6,1-2.1,1c-0.6,0-0.7-0.3-0.8-1.4c-1.3,1-2.4,1.4-3.6,1.4
		c-1.7,0-3.1-1.3-3.1-2.9c0-3,3.3-4,6.7-4.2v-1.4c0-1.5-0.8-2.3-2.5-2.3c-1.2,0-2.1,0.4-3.5,1.4v-1.2c1.4-0.9,2.4-1.2,3.7-1.2
		c1.4,0,3.6,0.6,3.6,3V74c0,0.5,0.1,0.6,0.3,0.6c0.3,0,1-0.5,1.6-1V74.6z M64.3,69.7c-3-0.1-5.4,1.2-5.4,3.1c0,1.1,1,1.9,2.3,1.9
		c1.1,0,2-0.4,3.2-1.5V69.7z"/>
	<path class="st0" d="M71.4,64.1h3.2v1h-3.2v6.8c0,2,0,2.7,1.7,2.7c0.7,0,1.1-0.1,2.1-0.6v1.2c-0.2,0.1-0.6,0.3-1,0.4
		c-0.4,0.1-0.9,0.2-1.3,0.2c-1.3,0-2.6-0.7-2.6-2.4v-8.2h-3.1v-1h3.1v-2.7l0.8-1.1h0.4V64.1z"/>
	<path class="st0" d="M78.2,60.3H77v-2.1h1.2V60.3z M78.2,75.5H77V64.1h1.2V75.5z"/>
	<path class="st0" d="M82.8,66.1L82.8,66.1c1.1-1.6,2.2-2.2,3.8-2.2c2.4,0,4.2,1.6,4.2,4.7v7h-1.2V69c0-2.6-1.1-3.9-3.1-3.9
		c-1.6,0-2.7,0.8-3.7,2.4v8h-1.2V64.1h1.2V66.1z"/>
	<path class="st0" d="M103,65.1h-2.6c1.1,1,1.6,1.9,1.6,3c0,5.1-6.5,3.4-6.5,5.6c0,2.5,7.5-0.6,7.5,4.3c0,2.1-1.9,3.3-5.1,3.3
		c-3.5,0-5-1.4-5-3c0-1.4,1.2-2.4,3.3-2.8v-0.1c-1.2-0.3-1.9-0.8-1.9-1.6c0-1,0.9-1.4,2.3-1.9V72c-2.3-0.7-3-2.4-3-3.8
		c0-1.9,1.2-4.1,4.8-4.1h4.6V65.1z M98.2,76.1c-1.4,0-4.1,0.2-4.1,2.1c0,1.3,1.4,2.1,3.9,2.1c2.3,0,3.9-0.9,3.9-2.2
		C101.8,76.5,100.3,76.1,98.2,76.1z M97.8,65.1c-1.7,0-3,1.3-3,3c0,1.7,1.3,3.1,3,3.1c1.7,0,3-1.4,3-3S99.5,65.1,97.8,65.1z"/>
	<path class="st0" d="M114.2,64.1h3.2v1h-3.2v6.8c0,2,0,2.7,1.7,2.7c0.7,0,1.1-0.1,2.1-0.6v1.2c-0.2,0.1-0.6,0.3-1,0.4
		c-0.4,0.1-0.9,0.2-1.3,0.2c-1.3,0-2.6-0.7-2.6-2.4v-8.2h-3.1v-1h3.1v-2.7l0.8-1.1h0.4V64.1z"/>
	<path class="st0" d="M124.9,75.7c-3.3,0-5.8-2.5-5.8-5.9c0-3.4,2.5-5.9,5.8-5.9s5.8,2.5,5.8,5.9C130.7,73.2,128.2,75.7,124.9,75.7z
		 M124.9,65.1c-2.6,0-4.5,2-4.5,4.7c0,2.7,1.9,4.7,4.5,4.7c2.6,0,4.5-2,4.5-4.7C129.4,67.1,127.5,65.1,124.9,65.1z"/>
	<path class="st0" d="M141.6,64.8c1.3-0.6,2.2-0.9,3.4-0.9c3.2,0,5.6,2.5,5.6,5.9c0,3.3-2.5,6-5.7,6c-1.1,0-2.1-0.2-3.4-0.9v6.5
		h-1.2V64.1h1.2V64.8z M141.6,73.7c1.2,0.6,2,0.9,3.1,0.9c2.7,0,4.6-1.9,4.6-4.7c0-2.8-2-4.8-4.7-4.8c-1,0-1.8,0.2-3,0.8V73.7z"/>
	<path class="st0" d="M160.5,66.4c-1.1-1-1.6-1.3-2.3-1.3c-1.1,0-2.4,1.2-3.7,3.3v7.2h-1.2V64.1h1.2v3h0.1c1.3-2.1,2.7-3.2,4-3.2
		c0.8,0,1.5,0.4,2.6,1.3L160.5,66.4z"/>
	<path class="st0" d="M167.1,75.7c-3.3,0-5.8-2.5-5.8-5.9c0-3.4,2.5-5.9,5.8-5.9c3.3,0,5.8,2.5,5.8,5.9
		C172.9,73.2,170.4,75.7,167.1,75.7z M167.1,65.1c-2.6,0-4.5,2-4.5,4.7c0,2.7,1.9,4.7,4.5,4.7c2.6,0,4.5-2,4.5-4.7
		C171.6,67.1,169.7,65.1,167.1,65.1z"/>
	<path class="st0" d="M177.8,64.1h3.2v1h-3.2v6.8c0,2,0,2.7,1.7,2.7c0.7,0,1.1-0.1,2.1-0.6v1.2c-0.2,0.1-0.6,0.3-1,0.4
		c-0.4,0.1-0.9,0.2-1.3,0.2c-1.3,0-2.6-0.7-2.6-2.4v-8.2h-3.1v-1h3.1v-2.7l0.8-1.1h0.4V64.1z"/>
	<path class="st0" d="M184,69.4c-0.4,2.9,2,5.2,4.5,5.2c1.5,0,2.8-0.5,4.2-1.7v1.4c-1.3,1-2.7,1.5-4.4,1.5c-3.3,0-5.7-2.5-5.7-6.1
		c0-3.4,2.2-5.8,5.2-5.8c2.4,0,5.1,1.7,5.1,5.5H184z M191.5,68.4c-0.4-2.2-1.6-3.3-3.6-3.3c-1.9,0-3.4,1.2-3.8,3.3H191.5z"/>
	<path class="st0" d="M203.4,65.8c-1.3-0.6-2-0.7-3-0.7c-2.5,0-4.3,1.9-4.3,4.8c0,2.9,1.7,4.7,4.4,4.7c1,0,1.8-0.2,3.1-0.7v1.3
		c-1.3,0.4-2.1,0.6-3.2,0.6c-3.4,0-5.6-2.3-5.6-5.8c0-3.6,2.3-6.1,5.5-6.1c1,0,1.8,0.2,3,0.6V65.8z"/>
	<path class="st0" d="M208.2,64.1h3.2v1h-3.2v6.8c0,2,0,2.7,1.7,2.7c0.7,0,1.1-0.1,2.1-0.6v1.2c-0.2,0.1-0.6,0.3-1,0.4
		c-0.4,0.1-0.9,0.2-1.3,0.2c-1.3,0-2.6-0.7-2.6-2.4v-8.2h-3.1v-1h3.1v-2.7l0.8-1.1h0.4V64.1z"/>
</g>
</svg>
